HIERARCHY
ROOT Spine1
{
	OFFSET 0.000000 0.000000 0.000000
	CHANNELS 6 Xposition Yposition Zposition Yrotation Zrotation Xrotation
	JOINT ShoulderCenter
	{
		OFFSET -0.205514 18.876436 0.135159
		CHANNELS 3 Yrotation Zrotation Xrotation
		JOINT Head
		{
			OFFSET 0.770116 17.627657 -2.090287
			CHANNELS 3 Yrotation Zrotation Xrotation
			End Site
			{
				OFFSET 0.000000 0.000000 0.000000
			}
		}
	}
	JOINT ShoulderCenterRight
	{
		OFFSET -0.205514 18.876436 0.135159
		CHANNELS 3 Yrotation Zrotation Xrotation
		JOINT RightShoulder
		{
			OFFSET 17.845980 -12.702277 -2.126908
			CHANNELS 3 Yrotation Zrotation Xrotation
			JOINT RightElbow
			{
				OFFSET 8.847807 -25.499380 2.134490
				CHANNELS 3 Yrotation Zrotation Xrotation
				JOINT RightWrist
				{
					OFFSET 5.272747 -21.557648 -6.138015
					CHANNELS 3 Yrotation Zrotation Xrotation
					JOINT RightHand
					{
						OFFSET -0.533871 -8.203170 -1.887393
						CHANNELS 3 Yrotation Zrotation Xrotation
						End Site
						{
							OFFSET 0.000000 0.000000 0.000000
						}
					}
				}
			}
		}
	}
	JOINT ShoulderCenterLeft
	{
		OFFSET -0.205514 18.876436 0.135159
		CHANNELS 3 Yrotation Zrotation Xrotation
		JOINT LeftShoulder
		{
			OFFSET -16.847723 -13.857049 -4.385018
			CHANNELS 3 Yrotation Zrotation Xrotation
			JOINT LeftElbow
			{
				OFFSET -8.563190 -24.046736 4.514146
				CHANNELS 3 Yrotation Zrotation Xrotation
				JOINT LeftWrist
				{
					OFFSET -4.485908 -21.382311 -11.171365
					CHANNELS 3 Yrotation Zrotation Xrotation
					JOINT LeftHand
					{
						OFFSET 0.129318 -7.897506 -1.070809
						CHANNELS 3 Yrotation Zrotation Xrotation
						End Site
						{
							OFFSET 0.000000 0.000000 0.000000
						}
					}
				}
			}
		}
	}
	JOINT Spine
	{
		OFFSET 0.205514 -18.876436 -0.135183
		CHANNELS 3 Yrotation Zrotation Xrotation
		JOINT HipCenterRight
		{
			OFFSET 0.417976 -6.538494 -5.735588
			CHANNELS 3 Yrotation Zrotation Xrotation
			JOINT RightHip
			{
				OFFSET 7.923275 -7.724222 -0.286913
				CHANNELS 3 Yrotation Zrotation Xrotation
				JOINT RightKnee
				{
					OFFSET 3.370692 -49.466190 8.306599
					CHANNELS 3 Yrotation Zrotation Xrotation
					JOINT RightAnkle
					{
						OFFSET 0.972806 -34.745415 2.176142
						CHANNELS 3 Yrotation Zrotation Xrotation
						JOINT RightFoot
						{
							OFFSET 2.233496 -5.360538 -4.802442
							CHANNELS 3 Yrotation Zrotation Xrotation
							End Site
							{
								OFFSET 0.000000 0.000000 0.000000
							}
						}
					}
				}
			}
		}
		JOINT HipCenterLeft
		{
			OFFSET 0.417976 -6.538494 -5.735588
			CHANNELS 3 Yrotation Zrotation Xrotation
			JOINT LeftHip
			{
				OFFSET -7.696061 -7.801840 -2.236056
				CHANNELS 3 Yrotation Zrotation Xrotation
				JOINT LeftKnee
				{
					OFFSET -5.945611 -47.569527 7.938027
					CHANNELS 3 Yrotation Zrotation Xrotation
					JOINT LeftAnkle
					{
						OFFSET -0.066772 -36.578144 2.390933
						CHANNELS 3 Yrotation Zrotation Xrotation
						JOINT LeftFoot
						{
							OFFSET -2.356356 -6.590277 -5.911922
							CHANNELS 3 Yrotation Zrotation Xrotation
							End Site
							{
								OFFSET 0.000000 0.000000 0.000000
							}
						}
					}
				}
			}
		}
	}
}
MOTION
Frames: 12
Frame Time: 0.033333
0.000000 0.000000 0.000000 0.000000 0.000000 0.000000 0.000000 0.000000 0.000000 0.0 0.0 0.0 0.000000 0.000000 0.000000 0.000000 0.000000 0.000000 0.000000 0.000000 0.000000 0.000000 0.000000 0.000000 0.0 0.0 0.0 0.000000 0.000000 0.000000 0.000000 0.000000 0.000000 0.000000 0.000000 0.000000 0.000000 0.000000 0.000000 0.0 0.0 0.0 0.000000 0.000000 0.000000 0.000000 0.000000 0.000000 0.000000 0.000000 0.000000 0.000000 0.000000 0.000000 0.000000 0.000000 0.000000 0.0 0.0 0.0 0.000000 0.000000 0.000000 0.000000 0.000000 0.000000 0.000000 0.000000 0.000000 0.000000 0.000000 0.000000 0.0 0.0 0.0 
0.005658 -0.030872 0.008488 -0.000643 0.028729 -0.041014 -0.016331 -0.098049 0.109855 0.0 0.0 0.0 0.000011 -0.000024 0.000005 0.006714 -0.047639 0.030809 -0.018369 -0.195711 -0.300916 -0.275082 0.814952 1.205548 0.0 0.0 0.0 0.119793 -0.096026 -0.073506 0.061155 -0.063859 -0.205624 -0.114909 0.105461 0.283242 0.227060 -1.084616 3.064511 0.0 0.0 0.0 0.012991 -0.018091 -0.044852 0.007393 0.062305 0.009464 -0.008190 -0.075106 0.064261 -0.010114 -0.162854 0.002899 -0.573115 0.600873 -0.082443 0.0 0.0 0.0 -0.075750 0.158236 0.030872 -0.044747 -0.233445 0.047034 0.008106 0.122319 -0.038116 -0.524636 0.581137 0.011634 0.0 0.0 0.0 
0.054161 -0.087062 0.020361 -0.001397 0.024003 -0.114748 0.011958 0.102299 0.003850 0.0 0.0 0.0 -0.009374 0.024540 -0.003746 0.065084 -0.115712 0.214958 -0.132830 -0.165826 -0.732950 -0.157379 0.222185 1.578223 0.0 0.0 0.0 0.173336 -0.241459 -0.079525 0.052671 0.040657 -0.126337 -0.158863 0.162808 0.348443 0.220111 -1.004282 3.305097 0.0 0.0 0.0 0.006322 -0.012560 -0.073282 -0.481290 0.023607 -0.468410 0.048008 -0.064796 0.857997 -0.013405 -0.122547 -0.197084 -0.154853 0.549720 0.822950 0.0 0.0 0.0 -0.349348 0.170524 0.304397 -0.037284 -0.276914 -0.072939 0.012508 0.170648 -0.407507 -0.850684 2.050559 -2.573570 0.0 0.0 0.0 
0.059105 -0.095123 0.037527 -0.001374 0.022905 -0.113245 0.008626 0.056368 -0.043968 0.0 0.0 0.0 -0.000017 -0.000016 -0.000014 0.073725 -0.082951 0.232091 -0.166986 -0.284095 -1.005343 -0.259438 0.568689 1.823373 0.0 0.0 0.0 0.142989 -0.197371 -0.066105 0.082869 0.022892 -0.220449 -0.117451 -0.110238 0.835935 -0.027188 0.288594 0.863935 0.0 0.0 0.0 -0.003336 0.000163 -0.049967 -0.422222 0.017140 -0.411046 0.043946 -0.047414 0.757896 -0.004696 -0.066645 -0.018280 1.557094 -0.603298 2.349652 0.0 0.0 0.0 -0.220509 0.235442 0.155175 -0.085012 -0.411964 0.133823 0.018386 0.254037 -0.439405 0.863147 -0.711959 -0.645893 0.0 0.0 0.0 
0.073865 -0.065604 0.063753 -0.001381 0.045930 -0.100333 0.013707 0.039754 -0.204170 0.0 0.0 0.0 0.023834 -0.146230 -0.000433 0.067798 0.017291 0.191322 -0.187485 -0.293468 -1.099194 -0.005433 -0.323201 1.281348 0.0 0.0 0.0 0.376184 -0.107190 -0.281614 -0.112835 -0.108311 0.260481 0.070907 -0.377104 0.611901 -0.108739 0.833252 0.474129 0.0 0.0 0.0 0.087469 -0.104525 -0.064349 -0.397283 0.068156 -0.384869 0.045272 -0.026423 0.727753 0.021728 -0.006520 0.789341 0.322203 -0.525980 -0.350204 0.0 0.0 0.0 -0.150851 0.338269 0.054902 -0.117403 -0.475926 0.314284 0.022510 0.288920 -0.831386 1.292741 -1.815168 1.034360 0.0 0.0 0.0 
0.098658 -0.069341 0.107431 -0.001071 0.020079 -0.086556 0.030501 0.134769 -0.323462 0.0 0.0 0.0 0.044015 -0.292805 -0.003449 0.147696 0.150108 0.390849 -0.264264 -0.212031 -1.321251 -0.003493 -0.244982 0.950864 0.0 0.0 0.0 0.345126 -0.028791 -0.276557 -0.214646 -0.410347 0.389978 0.180623 -0.593227 0.635499 -0.231070 1.683306 -1.957663 0.0 0.0 0.0 0.069163 -0.084643 -0.077970 -0.299540 0.084095 -0.288984 0.038598 -0.025854 0.628598 0.024189 0.038908 0.786815 0.398868 -0.246966 0.421807 0.0 0.0 0.0 -0.139346 0.411790 0.022030 -0.130331 -0.584516 0.273252 0.031452 0.430457 -0.592022 1.355560 -2.130137 1.719043 0.0 0.0 0.0 
0.134400 -0.083631 0.123215 -0.000713 -0.009714 -0.071342 0.041800 0.397841 0.113760 0.0 0.0 0.0 0.054023 -0.362908 -0.004618 0.117011 0.275565 0.272421 -0.220103 0.083232 -0.807030 0.299403 -1.285192 -0.065238 0.0 0.0 0.0 0.437575 0.042643 -0.371418 -0.542051 -1.511114 0.747939 0.078772 -0.127851 -0.057396 0.267132 -1.850033 0.497554 0.0 0.0 0.0 0.111037 -0.132474 -0.078291 -0.305070 0.155906 -0.291760 0.039026 -0.019360 0.619416 0.016529 -0.075892 0.742795 0.005291 0.094350 0.215971 0.0 0.0 0.0 -0.178269 0.464637 0.046232 -0.129892 -0.591918 0.259395 0.034745 0.463099 -0.760255 1.480799 -2.156141 1.416802 0.0 0.0 0.0 
0.215417 -0.234279 0.101876 -0.000915 -0.019255 -0.095270 0.049682 0.618491 0.481274 0.0 0.0 0.0 -0.043586 -0.547430 -0.096153 0.169155 0.647129 0.336018 -0.417056 2.533213 1.384428 0.938589 -3.625965 -3.236991 0.0 0.0 0.0 -0.139751 1.342898 -0.230659 -0.761509 -4.804233 -0.486572 0.206670 -1.120025 1.903289 -0.176163 1.280893 -0.491209 0.0 0.0 0.0 -0.078158 0.051917 -0.518715 -0.016221 0.411369 -0.000862 -0.016411 -0.416812 0.746168 0.006010 -0.311445 0.830786 -0.899292 0.850554 -0.334442 0.0 0.0 0.0 -0.227568 -0.346931 0.331632 -0.068313 -0.117620 0.392992 0.045650 0.616510 -0.739982 1.582795 -2.357603 1.675812 0.0 0.0 0.0 
0.238539 -0.268367 0.113487 -0.000621 -0.031370 -0.075793 0.061550 0.736396 0.513268 0.0 0.0 0.0 -0.047751 -0.543429 -0.098653 0.279082 2.252158 0.270945 -0.616357 4.772684 3.721006 -1.407921 5.718772 0.811958 0.0 0.0 0.0 -0.400040 1.881079 -0.151855 -1.473752 -9.323898 -1.187398 0.176143 -1.219022 2.324626 0.227573 -1.175352 2.536367 0.0 0.0 0.0 -0.128532 0.111730 -0.492427 0.090724 0.437460 0.104324 -0.043929 -0.501220 0.554226 -0.010840 -0.591938 0.790835 -1.805191 2.194267 0.456770 0.0 0.0 0.0 -0.084399 -0.456436 0.218676 -0.084819 -0.127322 0.513608 0.051541 0.694246 -0.778523 1.666529 -2.491667 1.802629 0.0 0.0 0.0 
0.241128 -0.320449 0.085831 -0.000639 -0.089331 -0.109596 0.070944 0.981167 0.867276 0.0 0.0 0.0 -0.167448 -0.959298 -0.233569 0.659480 5.973406 0.499701 -0.164948 4.237803 5.034438 0.331593 -0.451705 -3.761955 0.0 0.0 0.0 -0.508740 2.305140 -0.168396 -2.484730 -13.037560 -0.311565 1.023299 -2.806322 2.482035 1.306951 -11.745580 -2.392032 0.0 0.0 0.0 -0.193728 0.181056 -0.573194 0.190131 0.495826 0.203331 -0.051635 -0.537162 0.528799 -0.005463 -0.648028 1.043552 -2.122756 2.122500 -0.536969 0.0 0.0 0.0 -0.039399 -0.738522 0.255909 -0.039267 0.201412 0.575313 0.024083 0.334547 -0.465525 -0.527106 -0.388329 2.441325 0.0 0.0 0.0 
0.264108 -0.324830 0.111270 0.000360 -0.135041 -0.050314 0.108486 1.214114 0.651499 0.0 0.0 0.0 -0.116823 -1.187577 -0.224277 1.668364 13.185762 2.141187 0.014357 3.813145 5.203024 0.119023 1.191003 -5.221822 0.0 0.0 0.0 -0.447484 2.275177 -0.211637 -3.672398 -17.701735 0.618500 2.645369 -5.906765 3.226005 0.120171 -0.210776 4.986791 0.0 0.0 0.0 -0.186551 0.171604 -0.590185 0.123587 0.527816 0.139648 -0.051625 -0.548602 0.554524 0.010564 -0.425945 1.174443 -1.681508 1.537535 -0.755419 0.0 0.0 0.0 -0.093584 -0.726531 0.307271 -0.002217 0.303358 0.414002 0.011402 0.164320 -0.202479 -0.797757 -0.026654 2.259601 0.0 0.0 0.0 
0.246692 -0.361356 0.131965 0.001545 -0.208404 0.004145 0.144921 1.476481 0.530439 0.0 0.0 0.0 -0.457412 -0.743707 -0.415458 2.465089 17.458714 4.492067 -1.317079 6.848217 3.604268 -0.680867 2.870063 0.234981 0.0 0.0 0.0 -0.720100 2.074020 0.064381 -5.587335 -27.265921 -1.038937 -0.028676 -0.401063 1.153859 2.813880 -11.610529 10.185102 0.0 0.0 0.0 -0.387990 0.404408 -0.577330 0.201813 0.420300 0.211967 -0.067648 -0.578812 0.402859 -0.004931 -0.568062 0.929865 -1.462282 0.549424 -2.415095 0.0 0.0 0.0 0.057292 -0.965286 0.224821 0.008333 0.380232 0.429512 0.015792 0.229429 -0.207381 0.322077 -1.187495 2.159568 0.0 0.0 0.0 
